<svg width="185" height="256" viewBox="0 0 185 256" fill="none" xmlns="http://www.w3.org/2000/svg">
<rect width="185" height="256" rx="6" fill="#232D45"/>
<path d="M92.1948 43.6348C137.314 43.6348 173.891 81.4062 173.891 128L10.4989 128C10.4989 81.4062 47.0753 43.6348 92.1948 43.6348Z" fill="#21B5F5"/>
<path d="M92.5005 220.709C47.3812 220.709 10.8047 182.938 10.8047 136.344L174.196 136.344C174.196 182.938 137.62 220.709 92.5005 220.709Z" fill="#21B5F5"/>
<path d="M92.971 136.344C70.4115 136.344 52.123 117.241 52.123 93.6763L133.819 93.6763C133.819 117.241 115.53 136.344 92.971 136.344Z" fill="#DCF5FF"/>
<path d="M92.5017 128C115.061 128 133.35 147.103 133.35 170.667L51.6538 170.667C51.6538 147.103 69.9422 128 92.5017 128Z" fill="#006FF2"/>
<path fill-rule="evenodd" clip-rule="evenodd" d="M75.0996 132.054C80.4976 134.802 86.5617 136.344 92.9705 136.344C99.1943 136.344 105.093 134.89 110.372 132.289C104.974 129.542 98.91 128 92.5012 128C86.2775 128 80.3789 129.454 75.0996 132.054Z" fill="#232D45"/>
</svg>
