<svg width="185" height="256" viewBox="0 0 185 256" fill="none" xmlns="http://www.w3.org/2000/svg">
<g clip-path="url(#clip0_2058_11723)">
<rect width="185" height="256" rx="6" fill="#232D45"/>
<circle cx="95.2878" cy="-39.2874" r="127.305" fill="#006FF2"/>
<path d="M-21.7277 -39.4065C-21.7907 23.347 29.03 74.2699 91.7835 74.3329L92.0118 -152.918C29.2583 -152.981 -21.6646 -102.16 -21.7277 -39.4065Z" fill="#21B5F5"/>
<path d="M212.302 -39.1696C212.365 -101.923 161.544 -152.846 98.7907 -152.909L98.5624 74.3415C161.316 74.4046 212.239 23.5839 212.302 -39.1696Z" fill="#DCF5FF"/>
<circle cx="92.4988" cy="301.992" r="127.305" fill="#006FF2"/>
<circle cx="92.4988" cy="127.999" r="24.6492" fill="#21B5F5"/>
<path d="M-26.6962 301.871C-26.7604 365.793 25.0063 417.663 88.928 417.728L89.1605 186.247C25.2388 186.182 -26.632 237.949 -26.6962 301.871Z" fill="#21B5F5"/>
<path d="M211.692 302.113C211.757 238.191 159.99 186.32 96.0681 186.256L95.8355 417.737C159.757 417.801 211.628 366.034 211.692 302.113Z" fill="#DCF5FF"/>
</g>
<defs>
<clipPath id="clip0_2058_11723">
<rect width="185" height="256" rx="6" fill="white"/>
</clipPath>
</defs>
</svg>
