<svg width="400" height="400" viewBox="0 0 400 400" fill="none" xmlns="http://www.w3.org/2000/svg">
<path d="M49 222.619L115.356 155.525V289.712L49 222.619Z" fill="#006FF2"/>
<path d="M200.144 161.424L133.051 95.0679L267.237 95.0679L200.144 161.424Z" fill="#006FF2"/>
<path d="M198.67 112.763L155.17 70L242.17 70L198.67 112.763Z" fill="#006FF2"/>
<path d="M180.669 95.0674L198.669 112.762L216.669 95.0674H180.669Z" fill="black"/>
<path d="M352.763 222.619L286.407 155.525V289.712L352.763 222.619Z" fill="#006FF2"/>
<path d="M91.7627 221.881C91.7627 161.617 140.617 112.763 200.881 112.763V112.763C261.146 112.763 310 161.617 310 221.881V221.881V221.881C310 282.146 261.146 331 200.881 331V331C140.617 331 91.7627 282.146 91.7627 221.881V221.881V221.881Z" fill="#21B5F5"/>
<path d="M159.255 120.984L200.144 161.424L241.463 120.559C228.919 115.53 215.223 112.763 200.881 112.763C186.141 112.763 172.083 115.686 159.255 120.984Z" fill="#DCF5FF"/>
<circle cx="200.881" cy="221.881" r="85.5254" fill="black"/>
<path d="M171.39 225.279C171.39 220.165 175.432 216.019 180.418 216.019H222.549C227.535 216.019 231.577 220.165 231.577 225.279V253.058C231.577 258.171 227.535 262.317 222.549 262.317H180.418C175.432 262.317 171.39 258.171 171.39 253.058V225.279Z" fill="#3FD1A3"/>
<path d="M219.539 216.019V200.587C219.539 190.359 211.455 182.067 201.483 182.067C191.511 182.067 183.427 190.359 183.427 200.587V216.019M180.418 262.317H222.549C227.535 262.317 231.577 258.171 231.577 253.058V225.279C231.577 220.165 227.535 216.019 222.549 216.019H180.418C175.432 216.019 171.39 220.165 171.39 225.279V253.058C171.39 258.171 175.432 262.317 180.418 262.317Z" stroke="#DCF5FF" stroke-width="4.42373" stroke-linecap="round" stroke-linejoin="round"/>
<path d="M196.616 236.931C195.05 233.306 197.708 229.263 201.657 229.263V229.263C205.513 229.263 208.168 233.133 206.78 236.731L205.468 240.13L209.662 250.998H193.304L197.998 240.13L196.616 236.931Z" fill="black"/>
</svg>
