<svg width="159" height="146" viewBox="0 0 159 146" fill="none" xmlns="http://www.w3.org/2000/svg">
<rect x="20.5039" y="125.021" width="117.992" height="6.66" fill="#232D45"/>
<rect x="52" y="28" width="56.1537" height="96.8648" fill="#21B5F5"/>
<rect x="52" y="45" width="12" height="6" fill="black"/>
<rect x="52" y="65.1328" width="12" height="6" fill="black"/>
<circle cx="108" cy="61" r="10" fill="#006FF2"/>
<path d="M108.154 51.0012V70.9988C108.103 70.9996 108.051 71 108 71C102.477 71 98 66.5229 98 61C98 55.4772 102.477 51 108 51C108.051 51 108.103 51.0004 108.154 51.0012Z" fill="#DCF5FF"/>
<circle cx="108" cy="99" r="10" fill="#006FF2"/>
<path d="M108.154 89.0012V108.999C108.103 109 108.051 109 108 109C102.477 109 98 104.523 98 99C98 93.4771 102.477 89 108 89C108.051 89 108.103 89.0004 108.154 89.0012Z" fill="#DCF5FF"/>
</svg>
